<svg height="453pt" viewBox="0 0 453.19481 453" width="453pt" xmlns="http://www.w3.org/2000/svg"><path d="m383.75 215.269531c0 30.546875-24.761719 55.308594-55.304688 55.308594-30.546874 0-55.308593-24.761719-55.308593-55.308594 0-30.542969 24.761719-55.304687 55.308593-55.304687 30.542969 0 55.304688 24.761718 55.304688 55.304687zm0 0" fill="#87796f"/><path d="m328.445312 156.964844c-32.152343 0-58.308593 26.15625-58.308593 58.304687 0 32.152344 26.15625 58.308594 58.308593 58.308594 32.148438 0 58.304688-26.15625 58.304688-58.308594 0-32.148437-26.15625-58.304687-58.304688-58.304687zm0 110.613281c-28.84375 0-52.308593-23.464844-52.308593-52.308594 0-28.839843 23.464843-52.304687 52.308593-52.304687 28.839844 0 52.304688 23.464844 52.304688 52.304687 0 28.84375-23.464844 52.308594-52.304688 52.308594zm0 0" fill="#3a312a"/><path d="m196.457031 215.269531c0 41.65625-33.769531 75.425781-75.425781 75.425781s-75.421875-33.769531-75.421875-75.425781c0-41.652343 33.765625-75.421875 75.421875-75.421875s75.425781 33.769532 75.425781 75.421875zm0 0" fill="#87796f"/><path d="m121.03125 136.847656c-43.242188 0-78.421875 35.183594-78.421875 78.421875 0 43.246094 35.179687 78.425781 78.421875 78.425781s78.425781-35.179687 78.425781-78.425781c0-43.238281-35.183593-78.421875-78.425781-78.421875zm0 150.847656c-39.933594 0-72.421875-32.488281-72.421875-72.425781 0-39.933593 32.488281-72.421875 72.421875-72.421875 39.9375 0 72.425781 32.488282 72.425781 72.421875 0 39.9375-32.488281 72.425781-72.425781 72.425781zm0 0" fill="#3a312a"/><path d="m287.816406 231.277344c-3.832031-27.339844-29.09375-46.398438-56.433594-42.566406-27.335937 3.828124-46.394531 29.09375-42.566406 56.433593 3.828125 27.335938 29.09375 46.394531 56.433594 42.566407 27.335938-3.828126 46.394531-29.09375 42.566406-56.433594zm0 0" fill="#87796f"/><g fill="#3a312a"><path d="m238.324219 185.234375c-29.210938 0-52.980469 23.769531-52.980469 52.988281 0 29.214844 23.769531 52.984375 52.980469 52.984375 29.214843 0 52.984375-23.769531 52.984375-52.984375 0-29.21875-23.765625-52.988281-52.984375-52.988281zm0 99.972656c-25.90625 0-46.980469-21.078125-46.980469-46.988281 0-25.90625 21.074219-46.984375 46.980469-46.984375 25.910156 0 46.984375 21.078125 46.984375 46.984375 0 25.910156-21.074219 46.988281-46.984375 46.988281zm0 0"/><path d="m155.683594 122.632812c-4.726563-4.730468-7.320313-11.023437-7.292969-17.710937.023437-6.6875 2.660156-12.953125 7.425781-17.648437 5.878906-5.796876 9.152344-13.535157 9.214844-21.789063.058594-8.257813-3.097656-16.042969-8.894531-21.925781l-.867188-.882813c-9.574219-9.710937-9.515625-25.457031.132813-35.105469l.140625-.140624c1.164062-1.175782 1.089843-3-.082031-4.167969-1.171876-1.171875-3.140626-1.097657-4.308594.074219-11.964844 11.964843-12.035156 31.5-.160156 43.550781l.871093.882812c4.671875 4.738281 7.214844 11.015625 7.167969 17.667969-.050781 6.65625-2.6875 12.890625-7.425781 17.5625-5.914063 5.824219-9.183594 13.601562-9.214844 21.902344-.03125 8.300781 3.183594 16.101562 9.054687 21.976562l.492188.492188c.585938.582031 1.351562.871094 2.117188.871094.769531 0 1.542968-.292969 2.125-.882813 1.171874-1.171875 1.167968-3.070313-.007813-4.238281zm0 0"/><path d="m195.941406 122.632812c-4.730468-4.730468-7.320312-11.019531-7.296875-17.707031.027344-6.6875 2.664063-12.957031 7.425781-17.652343 5.882813-5.796876 9.15625-13.535157 9.214844-21.789063.0625-8.257813-3.097656-16.042969-8.894531-21.925781l-.867187-.878906c-9.570313-9.710938-9.511719-25.457032.132812-35.105469l.140625-.144531c1.167969-1.171876 1.089844-3-.082031-4.167969-1.167969-1.167969-3.136719-1.09375-4.308594.074219-11.964844 11.964843-12.035156 31.503906-.15625 43.558593l.871094.875c4.667968 4.742188 7.214844 11.015625 7.164062 17.671875-.046875 6.652344-2.683594 12.890625-7.425781 17.558594-5.910156 5.828125-9.183594 13.605469-9.214844 21.90625s3.183594 16.101562 9.058594 21.976562l.492187.488282c.585938.582031 1.351563.875 2.117188.875.769531 0 1.539062-.292969 2.125-.882813 1.167969-1.175781 1.164062-3.074219-.007812-4.242187zm0 0"/><path d="m233.519531 122.632812c-4.730469-4.730468-7.320312-11.019531-7.296875-17.707031.023438-6.6875 2.664063-12.957031 7.425782-17.652343 5.882812-5.796876 9.15625-13.535157 9.214843-21.789063.0625-8.257813-3.097656-16.042969-8.894531-21.925781l-.867188-.882813c-9.570312-9.710937-9.511718-25.457031.117188-35.089843l.144531-.144532c1.175781-1.167968 1.183594-3.066406.015625-4.242187-1.167968-1.175781-3.070312-1.183594-4.242187-.015625l-.152344.152344c-11.960937 11.964843-12.03125 31.5-.15625 43.550781l.871094.882812c4.671875 4.738281 7.214843 11.015625 7.167969 17.667969-.050782 6.65625-2.6875 12.890625-7.425782 17.5625-5.914062 5.824219-9.1875 13.601562-9.214844 21.902344-.03125 8.300781 3.183594 16.101562 9.050782 21.972656l.492187.488281c.585938.585938 1.351563.878907 2.117188.878907.769531 0 1.539062-.292969 2.125-.878907 1.171875-1.171875 1.171875-3.070312 0-4.242187zm0 0"/><path d="m273.773438 122.632812c-4.726563-4.730468-7.320313-11.019531-7.292969-17.707031.023437-6.6875 2.660156-12.957031 7.425781-17.652343 5.878906-5.796876 9.152344-13.535157 9.214844-21.789063.058594-8.257813-3.101563-16.042969-8.894532-21.925781l-.871093-.882813c-9.570313-9.710937-9.511719-25.457031.121093-35.089843l.140626-.144532c1.175781-1.167968 1.183593-3.066406.015624-4.242187-1.164062-1.175781-3.066406-1.183594-4.242187-.015625l-.148437.152344c-11.960938 11.964843-12.035157 31.5-.15625 43.550781l.867187.882812c4.671875 4.738281 7.21875 11.015625 7.167969 17.667969-.046875 6.65625-2.683594 12.890625-7.425782 17.5625-5.910156 5.824219-9.183593 13.601562-9.214843 21.902344-.03125 8.300781 3.183593 16.101562 9.054687 21.972656l.488282.488281c.585937.585938 1.355468.878907 2.121093.878907.769531 0 1.539063-.292969 2.125-.878907 1.171875-1.171875 1.171875-3.070312 0-4.242187zm0 0"/></g><path d="m420.992188 22.449219c-1.949219 23.128906-26.046876 26.78125-26.046876 26.78125 20.691407.972656 25.847657 28.117187 25.847657 28.117187.441406-19.355468 26.644531-28.40625 26.644531-28.40625-19.628906-1.175781-26.445312-26.492187-26.445312-26.492187zm0 0" fill="#d7e057"/><path d="m447.617188 45.949219c-17.210938-1.03125-23.664063-24.050781-23.726563-24.28125-.378906-1.40625-1.699219-2.320313-3.167969-2.203125-1.449218.128906-2.597656 1.28125-2.71875 2.734375-1.71875 20.429687-22.625 23.925781-23.507812 24.0625-1.527344.230469-2.628906 1.578125-2.546875 3.121093.082031 1.539063 1.316406 2.769532 2.855469 2.84375 18.054687.847657 22.996093 25.4375 23.042968 25.683594.277344 1.421875 1.519532 2.433594 2.945313 2.433594.085937 0 .167969 0 .253906-.007812 1.527344-.128907 2.714844-1.386719 2.75-2.917969.386719-17.019531 24.382813-25.554688 24.625-25.636719 1.351563-.472656 2.183594-1.828125 1.984375-3.246094-.195312-1.417968-1.363281-2.5-2.789062-2.585937zm-27.136719 20.691406c-2.710938-6.261719-7.417969-13.816406-15.171875-17.753906 5.863281-2.808594 12.816406-7.824219 16.402344-16.546875 3.101562 6.144531 8.402343 13.761718 16.667968 17.445312-6.011718 3.28125-13.84375 8.808594-17.898437 16.855469zm0 0" fill="#3a312a"/><path d="m377.59375 56.410156c-1.378906 16.359375-18.425781 18.941406-18.425781 18.941406 14.636719.6875 18.285156 19.886719 18.285156 19.886719.3125-13.6875 18.84375-20.089843 18.84375-20.089843-13.882813-.828126-18.703125-18.738282-18.703125-18.738282zm0 0" fill="#d7e057"/><path d="m396.476562 72.15625c-11.53125-.691406-15.945312-16.371094-15.988281-16.527344-.378906-1.40625-1.730469-2.324218-3.164062-2.207031-1.449219.132813-2.597657 1.289063-2.71875 2.738281-1.15625 13.742188-15.292969 16.132813-15.882813 16.226563-1.527344.230469-2.628906 1.578125-2.546875 3.121093.082031 1.539063 1.3125 2.765626 2.855469 2.839844 12.070312.570313 15.445312 17.289063 15.476562 17.453125.273438 1.425781 1.519532 2.441407 2.945313 2.441407.082031 0 .167969-.003907.25-.011719 1.53125-.128907 2.71875-1.386719 2.753906-2.921875.257813-11.417969 16.664063-17.265625 16.824219-17.324219 1.351562-.46875 2.1875-1.824219 1.992188-3.242187-.199219-1.417969-1.367188-2.503907-2.796876-2.585938zm-19.167968 13.585938c-1.847656-3.769532-4.679688-7.894532-8.894532-10.558594 3.710938-2.082032 7.394532-5.257813 9.738282-9.832032 2.117187 3.746094 5.3125 7.910157 9.882812 10.449219-3.695312 2.199219-7.976562 5.480469-10.726562 9.941407zm0 0" fill="#3a312a"/><path d="m377.59375 3.09375c-1.378906 16.359375-18.425781 18.945312-18.425781 18.945312 14.636719.6875 18.285156 19.886719 18.285156 19.886719.3125-13.691406 18.84375-20.089843 18.84375-20.089843-13.882813-.832032-18.703125-18.742188-18.703125-18.742188zm0 0" fill="#d7e057"/><path d="m396.476562 18.839844c-11.53125-.691406-15.945312-16.371094-15.988281-16.53125-.378906-1.402344-1.730469-2.3164065-3.164062-2.203125-1.449219.132812-2.597657 1.289062-2.71875 2.738281-1.15625 13.742188-15.292969 16.132812-15.882813 16.226562-1.527344.230469-2.628906 1.582032-2.546875 3.121094.082031 1.542969 1.3125 2.769532 2.855469 2.84375 12.070312.566406 15.445312 17.289063 15.476562 17.453125.273438 1.425781 1.519532 2.4375 2.945313 2.4375.082031 0 .167969 0 .25-.007812 1.53125-.128907 2.71875-1.386719 2.753906-2.921875.257813-11.417969 16.664063-17.269532 16.824219-17.324219 1.351562-.46875 2.1875-1.828125 1.992188-3.246094-.199219-1.417969-1.367188-2.5-2.796876-2.585937zm-19.167968 13.589844c-1.847656-3.773438-4.679688-7.894532-8.894532-10.558594 3.710938-2.082032 7.394532-5.261719 9.738282-9.832032 2.117187 3.746094 5.3125 7.90625 9.882812 10.445313-3.695312 2.199219-7.976562 5.480469-10.726562 9.945313zm0 0" fill="#3a312a"/><path d="m4.433594 250.339844c2.101562 20.621094 7.421875 40.363281 15.539062 58.78125 10.242188 23.359375 24.941406 44.601562 43.121094 62.800781 40.878906 41 99.320312 66.640625 164.21875 66.640625 64.902344 0 123.339844-25.640625 164.222656-66.640625 18.179688-18.199219 32.878906-39.441406 43.117188-62.800781 8.121094-18.417969 13.441406-38.160156 15.542968-58.78125zm0 0" fill="#fce8cb"/><path d="m452.421875 248.332031c-.570313-.628906-1.378906-.992187-2.226563-.992187h-321.15625c-1.65625 0-3 1.34375-3 3 0 1.660156 1.34375 3 3 3h317.804688c-2.246094 18.832031-7.265625 37.175781-14.941406 54.578125-10.023438 22.871093-24.316406 43.6875-42.496094 61.886719-41.667969 41.789062-100.75 65.757812-162.09375 65.757812-61.347656 0-120.429688-23.96875-162.097656-65.761719-18.171875-18.195312-32.46875-39.011719-42.496094-61.890625-7.671875-17.398437-12.6875-35.742187-14.9375-54.570312h91.140625c1.652344 0 3-1.34375 3-3 0-1.660156-1.347656-3-3-3h-94.488281c-.847656 0-1.65625.359375-2.226563.988281-.566406.632813-.84375 1.472656-.757812 2.316406 2.101562 20.613281 7.410156 40.695313 15.777343 59.679688 10.324219 23.558593 25.042969 44.996093 43.742188 63.714843 42.789062 42.914063 103.414062 67.523438 166.34375 67.523438s123.558594-24.609375 166.34375-67.519531c18.703125-18.726563 33.421875-40.164063 43.742188-63.710938 8.371093-18.992187 13.679687-39.070312 15.78125-59.6875.085937-.84375-.191407-1.683593-.757813-2.3125zm0 0" fill="#3a312a"/><path d="m19.972656 309.125c10.242188 23.359375 24.941406 44.597656 43.121094 62.796875h328.441406c18.179688-18.199219 32.878906-39.4375 43.117188-62.796875zm0 0" fill="#f16c7a"/><path d="m437.164062 307.480469c-.554687-.847657-1.5-1.355469-2.511718-1.355469h-74.371094c-1.65625 0-3 1.339844-3 3 0 1.65625 1.34375 3 3 3h69.722656c-9.730468 20.855469-23.074218 39.941406-39.71875 56.796875h-325.941406c-16.644531-16.855469-29.988281-35.941406-39.71875-56.796875h305.71875c1.65625 0 3-1.34375 3-3 0-1.660156-1.34375-3-3-3h-310.371094c-1.015625 0-1.957031.507812-2.511718 1.355469-.554688.847656-.644532 1.921875-.238282 2.847656 10.328125 23.554687 25.046875 44.992187 43.746094 63.714844.5625.5625 1.328125.878906 2.125.878906h328.441406c.792969 0 1.558594-.316406 2.121094-.878906 18.703125-18.722657 33.421875-40.160157 43.746094-63.714844.402344-.929687.316406-2-.238282-2.847656zm0 0" fill="#3a312a"/><path d="m151.964844 426.421875h150.695312v23.460937h-150.695312zm0 0" fill="#fce8cb"/><path d="m302.660156 423.421875h-150.695312c-1.65625 0-3 1.339844-3 3v23.460937c0 1.65625 1.34375 3 3 3h150.699218c1.65625 0 3-1.34375 3-3v-23.460937c-.003906-1.65625-1.347656-3-3.003906-3zm-3 23.460937h-144.695312v-17.460937h144.699218v17.460937zm0 0" fill="#3a312a"/><path d="m417.652344 253.339844c-2.179688 18.203125-6.957032 35.921875-14.179688 52.78125h29.179688c7.242187-16.859375 12.023437-34.578125 14.183594-52.78125zm0 0" fill="#decaad"/><path d="m354.914062 374.921875c-23.28125 21.761719-51.441406 38.261719-82.121093 48.5h29.179687c30.679688-10.238281 58.863282-26.738281 82.121094-48.5zm0 0" fill="#decaad"/><path d="m400.8125 312.125c-9.738281 20.859375-23.078125 39.9375-39.71875 56.796875h29.199219c16.640625-16.859375 29.980469-35.9375 39.699219-56.796875zm0 0" fill="#d34e5c"/><path d="m50.375 37.085938c-26.164062 0-47.375 21.210937-47.375 47.375 0 26.164062 21.210938 47.375 47.375 47.375 26.167969 0 47.378906-21.210938 47.378906-47.375 0-26.164063-21.214844-47.375-47.378906-47.375zm0 0" fill="#87796f"/><path d="m50.375 34.085938c-27.777344 0-50.375 22.597656-50.375 50.375 0 27.777343 22.601562 50.375 50.375 50.375 27.777344 0 50.378906-22.597657 50.378906-50.375 0-27.777344-22.601562-50.375-50.378906-50.375zm0 94.75c-24.46875 0-44.375-19.90625-44.375-44.375s19.90625-44.375 44.375-44.375 44.378906 19.90625 44.378906 44.375-19.910156 44.375-44.378906 44.375zm0 0" fill="#3a312a"/></svg>